<?xml version="1.0" standalone="no"?>
<!DOCTYPE svg PUBLIC "-//W3C//DTD SVG 20010904//EN"
 "http://www.w3.org/TR/2001/REC-SVG-20010904/DTD/svg10.dtd">
<svg version="1.0" xmlns="http://www.w3.org/2000/svg"
 width="1024.000000pt" height="1024.000000pt" viewBox="0 0 1024.000000 1024.000000"
 preserveAspectRatio="xMidYMid meet">

<g transform="translate(0.000000,1024.000000) scale(0.100000,-0.100000)"
fill="#00a3e4" stroke="none">
<path d="M3988 7822 c-31 -70 -83 -189 -117 -266 -33 -76 -61 -142 -61 -147 0
-6 230 -8 550 -7 303 2 549 0 548 -3 -2 -3 -32 -74 -67 -157 l-64 -152 -193 0
-193 0 -24 -52 c-14 -29 -55 -123 -92 -208 -135 -310 -471 -1075 -567 -1290
-33 -74 -69 -155 -80 -180 -11 -25 -37 -83 -58 -130 -21 -47 -78 -175 -126
-285 -49 -110 -96 -216 -105 -235 l-17 -35 859 -5 859 -5 -44 -95 c-24 -52
-81 -180 -126 -285 -45 -104 -132 -302 -192 -440 -61 -137 -151 -342 -200
-455 -50 -113 -157 -356 -239 -541 -162 -367 -279 -639 -274 -639 2 0 18 15
37 33 18 17 150 138 293 267 143 129 367 336 499 460 132 124 328 306 435 405
248 229 418 387 926 863 226 212 507 475 625 586 118 111 253 237 300 282 47
44 173 163 280 264 107 101 207 195 222 209 l28 26 -940 -3 c-517 -1 -940 0
-940 3 0 18 428 936 725 1555 70 146 174 366 232 490 57 124 113 239 123 257
10 17 16 34 13 37 -4 3 -630 6 -1393 6 l-1386 0 -56 -128z"/>
</g>
</svg>
